<svg xmlns="http://www.w3.org/2000/svg" viewBox="0 0 80.17 80.05">
  <metadata>
    SKI+ (https://opentransportdata.swiss/de/about-us/)
    Source: https://github.com/openTdataCH/train-view-svg-library
  </metadata>
  <rect x=".12" width="80.05" height="80.05" rx="15.14" fill="#2d327d"/>
  <path d="M62.09 43.96c-2.66-.29-5.18.19-7.37 1.25l-2.62-4.22 1.69-2.56.23-.34v-3h2.85v-2.8h-13.7v2.8h8.05v2.16l-1.41 2.15H29.75l-2.91-4.32.74 1.09 4.38-1.14-.02-2.05a.74.74 0 0 0-.75-.74l-6.96.06h-2.81v1.76l2.06 1.04 3.86 5.72-2.72 4.23c-1.92-.87-4.08-1.29-6.35-1.14C11.5 44.34 6 49.98 5.73 56.76c-.31 7.67 5.82 13.97 13.42 13.97 7.07 0 12.87-5.47 13.39-12.4h4.04a3.54 3.54 0 0 0 3.78 1.66c1.41-.28 2.53-1.47 2.77-2.89.13-.77 0-1.47-.28-2.09l7.56-11.45 1.94 3.13a13.44 13.44 0 0 0-5.05 12.69c.88 5.88 5.72 10.55 11.62 11.25 8.79 1.05 16.14-6.39 14.95-15.2-.81-6.01-5.74-10.81-11.76-11.47zM29.62 55.52h-8.11c-.04-.08-.09-.16-.16-.23l4.17-6.48a10.61 10.61 0 0 1 4.1 6.71zm-10.48 12.4A10.64 10.64 0 0 1 8.51 57.3c0-5.86 4.77-10.63 10.63-10.63a10.46 10.46 0 0 1 3.93.76l-4.35 6.77c-1.33.2-2.33 1.35-2.33 2.72a2.75 2.75 0 0 0 2.75 2.76 2.73 2.73 0 0 0 2.37-1.36h8.21c-.52 5.38-5.07 9.6-10.59 9.6zM36.62 54.6a2.82 2.82 0 0 0-.41.92h-3.75a13.39 13.39 0 0 0-5.4-9.07l1.99-3.1 7.58 11.24h0zm4.1-1.49a3.74 3.74 0 0 0-1.11-.18c-.23 0-.46.02-.68.07l-7.29-10.82h16.31L40.72 53.1zm19.84 14.81A10.64 10.64 0 0 1 49.93 57.3c0-3.31 1.51-6.26 3.9-8.21l5.54 8.95 2.39-1.47-5.55-8.95c1.33-.61 2.81-.94 4.36-.94a10.64 10.64 0 0 1 10.62 10.63 10.63 10.63 0 0 1-10.62 10.62z" fill="#fff"/>
</svg>
