<svg xmlns="http://www.w3.org/2000/svg" viewBox="0 0 80.17 80.05">
  <metadata>
    SKI+ (https://opentransportdata.swiss/de/about-us/)
    Source: https://github.com/openTdataCH/train-view-svg-library
  </metadata>
  <rect x=".12" width="80.05" height="80.05" rx="15.14" fill="#2d327d"/>
  <path d="M68.24 32.5c5.05-4.03 5.97-10.95 2.05-15.44-3.91-4.51-11.16-4.88-16.2-.86-.86.68-1.58 1.44-2.2 2.26-3.67-1.73-7.66-2.73-11.87-2.73s-8.09.97-11.69 2.65a12.52 12.52 0 0 0-2.13-2.18c-5.03-4.03-12.29-3.65-16.2.86-3.91 4.5-2.99 11.42 2.05 15.44.26.19.5.39.78.57-2.65 4.71-4.16 9.86-4.16 14.83 0 15.17 14.05 22.74 31.35 22.74s31.35-7.57 31.35-22.74c0-4.92-1.47-10.03-4.07-14.7.32-.23.63-.45.94-.7zm-40.47-.9c2.86 0 5.19 2.59 5.19 5.79s-2.33 5.81-5.19 5.81-5.21-2.6-5.21-5.81 2.33-5.79 5.21-5.79zm12.38 34.97c-9.07 0-16.41-5.34-16.41-11.92s7.34-11.92 16.41-11.92 16.4 5.34 16.4 11.92-7.34 11.92-16.4 11.92zm11.73-23.38c-2.88 0-5.21-2.6-5.21-5.81s2.33-5.79 5.21-5.79 5.19 2.59 5.19 5.79-2.33 5.81-5.19 5.81zm-11.73 5.06c-3.35 0-6.06 2.22-6.06 4.93s2.72 4.93 6.06 4.93 6.05-2.22 6.05-4.93-2.72-4.93-6.05-4.93z" fill="#fff"/>
</svg>
