<svg xmlns="http://www.w3.org/2000/svg" viewBox="0 0 80.17 80.05">
  <metadata>
    SKI+ (https://opentransportdata.swiss/de/about-us/)
    Source: https://github.com/openTdataCH/train-view-svg-library
  </metadata>
  <rect x=".12" width="80.05" height="80.05" rx="15.14" fill="#2d327d"/>
  <path d="M35.57,28.22V10.09c0-.39.27-.73.66-.82l3.86-.85v18.06c0,5.01-3.34,9.26-7.9,10.7v32.81c0,.91-.74,1.64-1.64,1.64h-3.49c-.91,0-1.64-.74-1.64-1.64v-32.81c-4.69-1.46-7.89-5.79-7.9-10.7V8.42l3.86.85c.38.08.66.42.66.82v18.13c0,.69.56,1.26,1.26,1.26h2c.69,0,1.26-.56,1.26-1.26V9.95c0-.33.19-.62.49-.76l1.69-.78,1.83.78c.31.13.51.43.51.77v18.25c0,.69.56,1.26,1.26,1.26h2c.69,0,1.26-.56,1.26-1.26ZM49.11,49.05v-27.09c0-7.5,6.05-13.55,13.55-13.55v61.57c0,.91-.74,1.64-1.64,1.64h-3.49c-.91,0-1.64-.74-1.64-1.64v-20.93h-6.77Z" fill="#fff" fill-rule="evenodd"/>
</svg>
