<svg xmlns="http://www.w3.org/2000/svg" viewBox="0 0 80.17 80.05">
  <metadata>
    SKI+ (https://opentransportdata.swiss/de/about-us/)
    Source: https://github.com/openTdataCH/train-view-svg-library
  </metadata>
  <rect x=".12" width="80.05" height="80.05" rx="15.14" fill="#2d327d"/>
  <path d="M37 13.64a5.53 5.53 0 0 1-5.53 5.53c-3.06 0-5.53-2.47-5.53-5.53s2.47-5.53 5.53-5.53S37 10.58 37 13.64zm24.78 46.54L54.3 42.6c-.52-1.22-1.71-2.01-3.03-2.01H38.51l-.69-5.49h10.57a2.01 2.01 0 0 0 0-4.02H37.32l-.84-6.73a4.58 4.58 0 1 0-9.09 1.13l2.19 17.6.11.81c0 1.82 1.47 3.3 3.3 3.3h16.09l6.62 15.57a3.3 3.3 0 0 0 3.03 2.01c.43 0 .87-.09 1.29-.26a3.31 3.31 0 0 0 1.74-4.33zm-10.04-2.24c-2.72 4.6-7.73 7.69-13.46 7.69-8.63 0-15.62-7-15.62-15.62 0-4.33 1.77-8.26 4.62-11.09l-.62-5.37c-5.16 3.65-8.53 9.66-8.53 16.46 0 11.13 9.02 20.15 20.15 20.15 6.29 0 11.9-2.88 15.6-7.39l-2.14-4.83z" fill="#fff"/>
</svg>
